<svg version="1.1" id="Layer_1" xmlns="http://www.w3.org/2000/svg" xmlns:xlink="http://www.w3.org/1999/xlink" x="0px" y="0px"
	 width="100%" viewBox="0 0 560 416" enable-background="new 0 0 560 416" xml:space="preserve">
<path fill="#000000" opacity="1.000000" stroke="none" 
	d="
M331.029419,204.253815 
	C293.999329,214.825882 257.365997,225.306870 220.729401,235.776505 
	C189.695053,244.645218 158.656937,253.500748 127.620590,262.362457 
	C126.979828,262.545410 126.351242,262.800018 125.698280,262.905914 
	C123.284645,263.297363 120.275269,264.452637 119.265648,261.203766 
	C118.188438,257.737396 121.335403,257.295776 123.727379,256.613464 
	C162.110992,245.664078 200.490021,234.698563 238.879974,223.771423 
	C273.106323,214.029404 307.342407,204.321655 341.582001,194.626160 
	C344.663361,193.753632 347.194366,192.735504 346.817474,188.675034 
	C346.636353,186.723465 348.026031,185.250732 350.069214,184.806244 
	C352.027161,184.380295 354.168243,184.746582 354.768707,186.663742 
	C355.995270,190.580170 358.409424,189.606644 361.070068,188.851349 
	C394.824097,179.269226 428.585388,169.712723 462.345703,160.152679 
	C471.625519,157.524902 480.912262,154.921417 490.185822,152.271881 
	C491.981964,151.758713 493.772034,151.271271 495.499603,152.274109 
	C496.404144,152.799194 496.819489,153.770126 496.639069,154.852386 
	C496.265045,157.096344 494.368134,157.584305 492.628845,158.084473 
	C480.801239,161.485703 468.954224,164.819122 457.121338,168.202103 
	C415.220795,180.181366 373.323364,192.171692 331.029419,204.253815 
z"/>
<path fill="#000000" opacity="1.000000" stroke="none" 
	d="
M290.602509,367.717804 
	C285.799164,368.554779 280.596527,366.070831 277.487213,371.196503 
	C270.864746,366.373932 250.908142,366.310455 246.210388,371.002441 
	C240.221603,365.859589 220.032089,366.006042 215.091293,371.528473 
	C213.122726,367.985352 209.707352,367.580170 206.206360,367.524902 
	C200.885391,367.440887 195.561966,367.506042 190.241302,367.410858 
	C187.469528,367.361328 185.517715,368.499725 184.539795,371.159912 
	C178.459946,366.041809 158.130035,366.117737 153.189865,371.043457 
	C147.346344,366.477661 126.743843,366.499054 122.495293,371.075317 
	C115.171196,366.367981 95.750008,366.502625 90.675369,371.537048 
	C88.730309,368.860596 85.994827,367.100739 83.456985,365.175995 
	C81.939285,365.299316 82.192734,366.514343 81.925117,367.403595 
	C81.304527,369.465759 80.261993,371.379456 77.778862,370.651703 
	C75.304329,369.926483 74.826187,367.758148 75.227951,365.365906 
	C75.621826,363.020599 76.531464,360.806030 79.293991,361.383240 
	C106.966454,367.165161 134.949280,362.725067 162.759674,363.989197 
	C192.026031,365.319519 221.323837,363.757324 250.609711,364.052063 
	C279.560394,364.343506 308.519714,364.854065 337.463074,364.431824 
	C358.757294,364.121094 380.051117,364.386719 401.333466,364.390594 
	C428.122009,364.395508 454.921295,364.127838 481.713013,364.584717 
	C484.706085,364.635742 487.703125,364.435547 490.698700,364.368042 
	C495.369141,364.262787 496.329773,365.759827 494.464447,370.895020 
	C489.854828,366.588348 484.144562,367.105896 478.677490,367.478180 
	C473.350525,367.840912 467.121399,364.887726 463.165131,371.108673 
	C457.899994,365.781158 436.552979,365.706818 432.218048,370.875031 
	C426.774963,365.961670 406.156921,365.734497 400.880585,370.529724 
	C394.414307,365.691376 375.010620,365.971375 370.153687,370.973145 
	C364.360870,366.085449 343.969269,365.837860 339.144623,370.596649 
	C333.913239,365.767059 313.056854,365.973694 308.012451,371.102661 
	C303.351257,365.263947 296.945160,367.851318 290.602509,367.717804 
z"/>
<path fill="#000000" opacity="1.000000" stroke="none" 
	d="
M89.006058,270.477570 
	C88.116798,269.243713 87.377892,268.362335 86.643005,267.485779 
	C90.892326,261.115295 90.923027,245.187759 86.707588,240.289154 
	C90.851967,233.969040 90.924339,218.536575 86.838028,212.475815 
	C91.214500,208.943466 90.779045,190.346344 86.217148,185.959915 
	C90.954567,180.778168 91.234467,162.976181 86.650040,158.427780 
	C90.886421,152.643127 91.066734,135.866287 86.945976,130.892471 
	C91.191437,126.517654 90.796417,107.971619 86.370743,103.885147 
	C91.058838,99.116302 90.865601,81.270805 86.024620,76.327103 
	C87.248100,74.314964 89.157440,74.640869 90.858650,75.187859 
	C92.973663,75.867905 92.396385,77.820488 92.396004,79.446815 
	C92.379601,149.221710 92.368080,218.996597 92.357422,288.771484 
	C92.355011,304.580048 92.332886,320.388702 92.373520,336.197174 
	C92.385735,340.947693 90.857208,346.266113 97.813881,349.114471 
	C93.010468,351.396912 89.327042,350.593140 84.397919,349.436859 
	C91.560432,346.198090 89.099892,340.453583 89.436295,335.807892 
	C89.780533,331.053986 90.680359,325.721344 85.908249,322.102112 
	C90.543541,317.011475 91.055824,300.463043 87.690796,295.962982 
	C90.277580,287.022675 89.940384,278.948883 89.006058,270.477570 
z"/>
<path fill="#000000" opacity="1.000000" stroke="none" 
	d="
M129.741882,115.642395 
	C131.118881,115.495316 132.296188,115.635864 133.029343,115.131172 
	C136.737915,112.578270 139.520874,113.045120 141.546219,118.385704 
	C143.280136,110.934555 148.620865,114.128288 152.480103,113.380150 
	C156.131912,112.672203 159.656296,115.836662 163.552536,113.945564 
	C165.057953,115.237686 164.410843,117.310753 165.202438,118.920189 
	C165.872559,120.282631 164.876984,122.023636 163.112762,122.067314 
	C154.762085,122.274055 146.406723,122.286644 138.053787,122.416527 
	C137.019165,122.432617 136.156784,122.271240 135.237976,121.730240 
	C128.507538,117.767235 124.756012,118.301758 119.320328,123.838799 
	C118.886070,124.281151 118.241478,124.517014 117.692719,124.849991 
	C116.411133,122.689789 116.411133,122.689789 116.795052,115.632454 
	C120.922264,115.632454 125.129829,115.632454 129.741882,115.642395 
z"/>
<path fill="#000000" opacity="1.000000" stroke="none" 
	d="
M331.797119,411.901398 
	C324.848328,411.001617 318.326569,412.882843 311.745544,412.401184 
	C306.501434,412.017395 301.247925,411.682220 295.984009,412.426819 
	C294.835449,409.671448 295.944794,407.460480 295.702393,405.256348 
	C299.664703,402.973724 304.856598,405.386810 307.768799,400.610504 
	C311.575531,406.651794 317.093933,403.326874 321.635223,404.355743 
	C323.979889,404.886993 326.577789,404.684448 329.002228,404.365112 
	C331.172089,404.079346 333.234619,403.936584 334.042206,406.232300 
	C334.776367,408.319305 334.603851,410.559143 331.797119,411.901398 
z"/>
<path fill="#000000" opacity="1.000000" stroke="none" 
	d="
M271.772491,412.290405 
	C266.746399,412.245789 262.106598,411.626068 257.490356,412.768463 
	C256.043030,413.126617 253.893723,412.783142 254.056183,410.928131 
	C254.362106,407.435028 252.030029,405.153656 250.629883,402.160156 
	C255.470337,399.656982 259.907593,400.961121 264.103058,402.888245 
	C268.504303,404.909882 273.432129,402.677826 278.061523,405.100006 
	C277.639252,407.404144 277.206726,409.764221 276.809967,411.929169 
	C275.113800,412.984192 273.622559,412.358063 271.772491,412.290405 
z"/>
<path fill="#000000" opacity="1.000000" stroke="none" 
	d="
M146.733047,95.924469 
	C141.931702,94.829384 136.644806,96.613518 132.923248,91.738251 
	C136.878616,88.253326 140.768875,85.104515 146.423843,86.591583 
	C149.586105,87.423157 152.672180,86.726982 155.749664,86.476532 
	C160.082855,86.123894 159.976028,88.984879 160.410263,91.857513 
	C160.915756,95.201607 158.863220,95.309372 156.526016,95.398537 
	C153.389099,95.518196 150.255997,95.737373 146.733047,95.924469 
z"/>
<path fill="#000000" opacity="1.000000" stroke="none" 
	d="
M306.673035,386.522430 
	C305.293152,386.535553 304.149384,386.600464 303.032745,386.809937 
	C300.791687,387.230255 298.081726,388.409210 297.976257,384.564423 
	C297.892639,381.517792 296.666382,377.759338 301.930847,377.191132 
	C307.252045,376.616791 312.466827,377.792175 317.749512,377.602417 
	C319.422211,377.542328 319.771973,379.103302 319.824463,380.475677 
	C319.915710,382.861298 319.717621,385.897278 317.317810,386.404938 
	C313.999512,387.106934 310.408630,388.609100 306.673035,386.522430 
z"/>
<path fill="#000000" opacity="1.000000" stroke="none" 
	d="
M472.914917,377.938843 
	C476.225464,383.416595 474.760132,385.891846 469.166260,386.591919 
	C463.230957,387.334686 457.440002,387.706085 451.590851,386.127899 
	C450.520721,383.644531 453.498383,382.923157 453.785370,381.067902 
	C453.351440,380.180115 451.633881,380.830841 451.838959,378.464172 
	C458.577576,377.071716 465.601013,377.457062 472.914917,377.938843 
z"/>
<path fill="#000000" opacity="1.000000" stroke="none" 
	d="
M61.065918,180.750412 
	C66.690933,180.737473 72.045662,181.168991 77.332245,180.746933 
	C81.092468,180.446747 81.674454,182.462906 81.810760,185.109879 
	C81.955681,187.924149 80.873970,190.181351 77.573257,189.960587 
	C72.624359,189.629562 67.737083,189.450592 62.959915,191.172012 
	C61.441967,191.718964 59.124577,191.461609 59.529602,189.748764 
	C60.232468,186.776413 58.303482,183.469849 61.065918,180.750412 
z"/>
<path fill="#000000" opacity="1.000000" stroke="none" 
	d="
M35.969433,231.671005 
	C34.741795,229.451309 34.459480,227.544678 36.367203,226.022202 
	C38.049522,224.679642 38.048035,222.844315 37.971920,221.047455 
	C37.823257,217.538101 38.636044,215.242538 42.904091,215.745789 
	C44.920174,215.983505 47.100834,214.680344 48.741604,217.083023 
	C50.500103,219.658081 49.016624,221.413300 47.622761,223.298126 
	C46.784859,224.431168 46.414234,225.713989 46.915882,227.045502 
	C47.764324,229.297485 49.459545,231.395157 46.055416,233.269699 
	C42.718815,235.107056 39.761452,236.044312 36.927158,232.640060 
	C36.716957,232.387589 36.445816,232.185837 35.969433,231.671005 
z"/>
<path fill="#000000" opacity="1.000000" stroke="none" 
	d="
M130.323166,106.472855 
	C128.409775,106.383324 126.251740,107.099678 126.487633,104.326286 
	C126.678627,102.080772 128.591431,102.701927 129.986725,102.560333 
	C131.625778,102.394005 133.677170,102.820618 134.831879,101.990967 
	C138.560898,99.311707 141.283569,99.806908 143.228561,103.962929 
	C148.575394,99.390938 148.575394,99.390938 155.381897,101.286087 
	C155.365021,107.325668 154.497986,108.787186 148.174484,109.258362 
	C143.655060,109.595116 138.516296,112.212990 134.504623,107.288040 
	C133.863739,106.501244 131.987289,106.720886 130.323166,106.472855 
z"/>
<path fill="#000000" opacity="1.000000" stroke="none" 
	d="
M75.165695,289.753723 
	C77.815681,289.678284 80.358131,289.091064 81.323029,292.116913 
	C82.064568,294.442291 81.992271,296.798401 80.012108,298.529144 
	C77.911583,300.365143 75.404190,298.408844 72.957230,298.917938 
	C70.956070,299.334290 68.535744,299.084229 66.280319,299.362823 
	C60.337029,300.096832 59.682495,299.405975 60.080570,293.337982 
	C60.133560,292.530151 60.298843,291.729706 60.427181,290.818970 
	C65.260986,289.620972 69.959206,288.780640 75.165695,289.753723 
z"/>
<path fill="#000000" opacity="1.000000" stroke="none" 
	d="
M498.715393,378.018555 
	C500.665619,378.419556 502.285767,377.113708 503.900787,378.120728 
	C505.843750,385.324463 504.588623,387.066650 497.649292,386.979370 
	C492.749603,386.917725 487.848572,386.967438 483.684784,386.967438 
	C482.249390,385.390900 482.592194,384.576508 483.053345,383.914825 
	C484.413666,381.962860 480.540588,379.786774 483.235046,378.074249 
	C485.613312,376.562714 488.429047,377.664185 491.038269,377.338989 
	C493.424530,377.041595 495.929230,377.694855 498.715393,378.018555 
z"/>
<path fill="#000000" opacity="1.000000" stroke="none" 
	d="
M243.732574,376.981323 
	C247.276321,377.183441 250.427551,377.457642 253.584381,377.560181 
	C255.580734,377.625092 257.127380,377.964935 257.675964,380.275726 
	C258.192383,382.451019 257.922607,384.582275 256.128967,385.663361 
	C253.939713,386.982910 251.187012,388.654297 248.707825,387.146576 
	C245.737961,385.340424 242.789291,386.021149 240.107468,386.680878 
	C236.072235,387.673523 235.736954,386.202637 236.360031,382.944397 
	C236.632629,381.518921 236.405899,379.997955 236.405899,378.304443 
	C238.840973,377.839783 241.091705,377.410278 243.732574,376.981323 
z"/>
<path fill="#000000" opacity="1.000000" stroke="none" 
	d="
M269.159607,377.569000 
	C274.447205,377.580353 279.364441,377.568237 284.277893,377.425507 
	C287.859680,377.321503 288.834534,379.014557 288.467712,382.383179 
	C288.116760,385.605865 287.306305,386.981659 283.505035,386.473785 
	C279.397430,385.924988 275.119476,386.575165 270.922028,386.812500 
	C269.259613,386.906494 266.541870,387.163940 266.993439,385.376617 
	C267.651978,382.770081 263.933350,379.010925 269.159607,377.569000 
z"/>
<path fill="#000000" opacity="1.000000" stroke="none" 
	d="
M350.351379,383.302185 
	C349.469727,387.558807 346.705780,386.154755 344.089600,386.327179 
	C338.525848,386.693848 333.000671,387.113617 327.469727,386.664886 
	C326.542358,384.000671 329.060455,383.095673 329.777740,381.299133 
	C329.145752,380.732025 328.076447,380.232117 327.945068,379.551239 
	C327.725311,378.412567 328.803040,377.811340 329.860077,377.771027 
	C335.768036,377.545441 341.664856,378.069214 347.607544,377.549072 
	C350.596344,377.287506 350.561829,380.517670 350.351379,383.302185 
z"/>
<path fill="#000000" opacity="1.000000" stroke="none" 
	d="
M67.001373,162.644226 
	C64.523567,161.719284 61.276009,165.105835 60.203438,161.324051 
	C59.619034,159.263474 60.595676,156.764374 59.575584,154.665482 
	C61.205296,152.589951 63.314056,153.042404 65.239861,153.104553 
	C69.219467,153.232971 73.201736,153.764908 77.169014,153.650162 
	C81.017525,153.538849 81.592728,155.552734 81.489555,158.658859 
	C81.376656,162.057861 79.909164,162.895279 76.637321,162.209381 
	C73.594154,161.571426 70.551651,163.914536 67.001373,162.644226 
z"/>
<path fill="#000000" opacity="1.000000" stroke="none" 
	d="
M366.534729,377.292358 
	C371.333557,377.466492 375.706970,378.443268 380.036652,377.643433 
	C382.244629,385.660736 381.874420,386.672882 374.464874,386.290405 
	C369.317993,386.024658 364.181671,387.578796 358.581970,386.187622 
	C359.960541,383.630890 357.926514,380.836975 359.186737,378.709869 
	C360.685608,376.179932 363.924255,378.556763 366.534729,377.292358 
z"/>
<path fill="#000000" opacity="1.000000" stroke="none" 
	d="
M93.794296,377.765625 
	C95.439949,377.616699 96.762947,377.554565 98.085136,377.478302 
	C100.652596,377.330231 102.891495,377.584045 102.562195,381.057098 
	C102.281883,384.013458 102.697372,386.909637 97.782684,386.661377 
	C94.012741,386.470947 90.157593,386.014343 86.243637,386.633118 
	C81.004097,387.461456 80.299606,385.942413 81.320808,377.916779 
	C85.339104,376.496246 89.425545,378.517395 93.794296,377.765625 
z"/>
<path fill="#000000" opacity="1.000000" stroke="none" 
	d="
M118.904663,386.396118 
	C112.773743,387.434326 112.773743,387.434326 112.050949,377.574188 
	C117.838165,377.574188 123.592789,377.761658 129.327332,377.503235 
	C132.718292,377.350433 133.776184,378.893585 133.797028,381.853363 
	C133.818146,384.853699 132.318512,386.527069 129.352737,386.807526 
	C127.365410,386.995483 125.296646,387.233215 123.491364,386.175781 
	C121.954041,385.275330 120.628639,385.769684 118.904663,386.396118 
z"/>
<path fill="#000000" opacity="1.000000" stroke="none" 
	d="
M177.181885,377.036194 
	C183.149643,375.843475 188.524460,378.921875 194.383743,377.505371 
	C194.760696,379.480865 195.148865,381.039734 195.339859,382.622437 
	C195.662918,385.299561 194.385498,386.796021 191.692825,386.785248 
	C186.859604,386.765961 182.039642,385.355865 177.183762,386.792999 
	C176.009094,387.140625 174.235245,386.585754 174.507141,385.393707 
	C175.134430,382.643433 172.511719,378.854187 177.181885,377.036194 
z"/>
<path fill="#000000" opacity="1.000000" stroke="none" 
	d="
M215.641296,386.565979 
	C213.632477,386.507050 211.988022,386.579834 210.342743,386.616211 
	C207.453308,386.680054 204.883789,386.961426 204.871826,382.474701 
	C204.861160,378.474670 206.503372,377.718140 209.874527,377.768158 
	C214.127747,377.831207 218.385284,377.554077 222.641830,377.464752 
	C224.925461,377.416779 226.650787,378.194794 226.458115,380.854889 
	C226.288773,383.193176 227.073456,386.260040 223.362762,386.603821 
	C220.928757,386.829315 218.459030,386.668884 215.641296,386.565979 
z"/>
<path fill="#000000" opacity="1.000000" stroke="none" 
	d="
M420.911499,379.314026 
	C423.691498,375.879822 427.134033,378.524658 430.219086,377.911560 
	C432.469757,377.464233 436.880707,375.143890 436.239227,381.394745 
	C438.115784,379.399536 439.144989,376.881042 442.381104,378.212921 
	C442.592560,379.709015 443.001434,381.304382 442.996216,382.898407 
	C442.989899,384.820465 442.379639,386.609131 439.966705,386.625671 
	C433.617523,386.669189 427.267914,386.640381 420.464874,386.640381 
	C421.180420,384.061737 421.688995,381.851379 420.911499,379.314026 
z"/>
<path fill="#000000" opacity="1.000000" stroke="none" 
	d="
M68.426796,99.550560 
	C71.929268,99.495438 75.049316,99.279930 78.171059,99.251343 
	C81.373299,99.222008 81.965370,101.498764 81.786285,104.003128 
	C81.626816,106.233261 80.950310,108.591530 78.054436,108.227470 
	C72.818169,107.569183 67.693085,108.573105 62.518383,108.801308 
	C61.741589,108.835556 60.955215,108.652596 59.945793,108.546120 
	C59.694317,105.609573 61.107700,102.936478 59.767120,99.903831 
	C62.849861,99.743103 65.447487,99.607674 68.426796,99.550560 
z"/>
<path fill="#000000" opacity="1.000000" stroke="none" 
	d="
M72.278900,262.204834 
	C74.130112,262.256927 75.623550,262.479279 77.095108,262.379333 
	C81.411720,262.086243 81.459152,264.988495 81.360741,267.960785 
	C81.258423,271.050995 79.639580,271.913086 76.702072,271.202820 
	C72.385254,270.159088 67.602592,273.288361 63.450706,269.871979 
	C63.419804,269.846558 62.565197,271.631897 60.855522,271.095642 
	C59.028370,268.816376 60.646461,265.999817 59.785648,263.189514 
	C64.223976,262.837524 68.067558,262.532684 72.278900,262.204834 
z"/>
<path fill="#000000" opacity="1.000000" stroke="none" 
	d="
M71.708099,217.300522 
	C66.699677,219.221405 65.521095,215.441788 63.818020,212.415543 
	C62.168652,213.521210 62.966782,214.809753 63.064262,215.993546 
	C63.176434,217.355667 62.581932,218.319153 61.128258,218.300369 
	C59.531601,218.279724 59.088135,217.088913 59.578934,215.876114 
	C60.526161,213.535446 60.252968,211.066971 60.199562,208.117538 
	C66.243614,208.117538 71.830467,208.285736 77.397743,208.029068 
	C79.429512,207.935394 80.639442,208.549973 81.389427,210.162338 
	C82.390648,212.314774 81.789513,214.398773 80.536224,216.268646 
	C79.453743,217.883698 78.092415,217.682388 76.703773,216.599640 
	C74.934052,215.219757 73.638687,217.189514 71.708099,217.300522 
z"/>
<path fill="#000000" opacity="1.000000" stroke="none" 
	d="
M79.540573,244.340393 
	C77.561134,244.429794 75.910454,244.272537 74.279404,244.389359 
	C66.856171,244.921173 66.858154,244.948898 63.398029,238.837494 
	C61.184258,240.180161 64.719154,244.604187 61.325188,244.295639 
	C57.629951,243.959686 61.167263,240.109116 59.932560,238.096252 
	C59.651859,237.638641 59.891243,236.862030 59.891243,235.551086 
	C66.285034,235.551086 72.432106,235.438766 78.572319,235.595276 
	C81.985161,235.682266 82.608635,240.060440 79.540573,244.340393 
z"/>
<path fill="#000000" opacity="1.000000" stroke="none" 
	d="
M144.469269,377.573730 
	C149.983215,377.544403 155.119736,377.526276 160.255630,377.459473 
	C161.994904,377.436859 163.877716,377.490784 164.302780,379.479340 
	C164.745514,381.550446 164.911194,383.903778 163.518127,385.704010 
	C162.239563,387.356262 160.634750,385.847992 159.156372,385.778656 
	C155.985428,385.629913 152.554718,384.676056 149.842880,386.657349 
	C147.340500,386.363251 149.252014,383.657715 147.253448,383.142303 
	C145.002960,383.408722 147.567047,385.965027 145.840469,386.532227 
	C142.431061,385.246002 141.615555,381.152039 144.469269,377.573730 
z"/>
<path fill="#000000" opacity="1.000000" stroke="none" 
	d="
M185.869049,95.052536 
	C181.409531,95.184097 177.282196,95.184097 172.949417,95.184097 
	C173.061081,93.200294 174.705963,91.616409 173.208984,89.814552 
	C172.178848,88.574608 172.382050,87.178162 174.135666,86.727631 
	C175.802231,86.299461 177.120300,86.948891 177.443558,88.816849 
	C177.583679,89.626572 177.445740,90.483849 177.580780,91.295113 
	C177.860413,92.974968 179.103714,93.521461 180.537659,93.140511 
	C182.045105,92.740036 182.796890,91.709106 181.643951,90.163155 
	C180.404922,88.501724 181.137283,86.515137 182.703262,86.981705 
	C187.024841,88.269295 191.770752,85.959023 195.822769,88.893173 
	C198.059357,90.512718 196.738998,92.871521 197.680389,94.656395 
	C193.732529,96.945923 189.938217,93.738785 185.869049,95.052536 
z"/>
<path fill="#000000" opacity="1.000000" stroke="none" 
	d="
M70.356071,352.983765 
	C68.576164,352.755219 67.246033,354.148651 65.556023,353.233704 
	C64.209152,351.898804 64.718788,349.906189 64.307739,348.191956 
	C63.985504,346.848053 64.439865,345.063751 65.816658,344.867828 
	C70.533318,344.196594 75.387482,343.935333 80.018112,344.968964 
	C82.525642,345.528656 82.104126,348.382629 81.736549,350.570984 
	C81.378769,352.701019 79.905457,354.227173 77.992928,353.687775 
	C75.513657,352.988495 73.021980,353.998352 70.356071,352.983765 
z"/>
<path fill="#000000" opacity="1.000000" stroke="none" 
	d="
M68.334244,316.788696 
	C71.712692,317.870636 74.775772,317.313110 77.838936,317.009583 
	C80.865921,316.709686 82.144928,318.369995 82.018967,321.125549 
	C81.902710,323.668732 81.233788,326.945831 78.117180,326.221436 
	C73.829018,325.224731 69.727104,326.672028 65.015251,325.824097 
	C65.777710,322.733765 60.647850,318.075104 68.334244,316.788696 
z"/>
<path fill="#000000" opacity="1.000000" stroke="none" 
	d="
M81.588509,77.496597 
	C80.446899,82.763458 76.623909,79.561638 74.167122,80.178856 
	C70.472382,81.107124 66.763618,80.588623 63.925461,77.421928 
	C65.372650,71.471146 69.505836,71.313065 74.596107,71.790581 
	C78.433365,72.150558 82.099632,71.596039 81.588509,77.496597 
z"/>
<path fill="#000000" opacity="1.000000" stroke="none" 
	d="
M37.972801,201.029602 
	C38.903332,200.346497 39.753185,199.482681 40.783360,199.022781 
	C42.314674,198.339188 44.430447,197.899887 45.458908,199.141403 
	C48.247097,202.507156 46.361626,206.677399 46.562363,210.467072 
	C46.714584,213.340866 43.700832,213.287811 41.670155,213.432190 
	C39.452301,213.589859 37.121315,213.487701 34.687267,211.608124 
	C37.940582,208.830597 39.752884,205.767990 38.028725,201.378632 
	C37.998524,201.004364 37.972797,201.029602 37.972801,201.029602 
z"/>
<path fill="#000000" opacity="1.000000" stroke="none" 
	d="
M406.064453,385.188141 
	C405.915222,385.483521 405.727966,386.050171 405.622223,386.035309 
	C400.371155,385.299438 395.081238,387.881500 389.959564,386.141327 
	C388.671997,383.664246 394.585876,381.454468 388.437683,379.147461 
	C395.026672,376.426483 400.446716,378.640900 405.812561,379.101196 
	C405.271118,381.534271 405.583588,383.364227 406.064453,385.188141 
z"/>
<path fill="#000000" opacity="1.000000" stroke="none" 
	d="
M36.521675,250.342255 
	C38.955948,250.104263 41.085381,251.345932 43.430099,249.894821 
	C43.239353,248.274246 43.036045,246.546936 42.829407,244.791321 
	C40.361862,244.737030 38.665997,246.326004 35.913280,247.027893 
	C35.678619,243.566650 35.453030,240.239136 35.200378,236.512527 
	C39.008820,237.118256 41.375900,240.453842 45.074581,240.124802 
	C45.879375,240.053192 46.454697,241.263443 46.268562,242.042709 
	C45.308617,246.061676 46.840862,250.137421 46.204468,254.457535 
	C42.672680,254.515045 39.397194,253.178177 36.512321,254.797729 
	C34.833855,253.130844 35.268085,251.810257 36.521675,250.342255 
z"/>
<path fill="#000000" opacity="1.000000" stroke="none" 
	d="
M65.277397,126.958908 
	C69.527443,126.648872 73.539070,126.596718 77.541168,126.373718 
	C80.924484,126.185196 81.368568,128.345520 81.353668,130.880569 
	C81.340103,133.186859 80.959572,135.286026 77.897667,135.267044 
	C73.906143,135.242294 69.914352,135.261002 65.076355,135.261002 
	C67.299103,132.110901 65.027344,129.757584 65.277397,126.958908 
z"/>
<path fill="#000000" opacity="1.000000" stroke="none" 
	d="
M294.081421,402.902527 
	C292.265350,405.980042 292.051331,409.031677 292.708527,412.651703 
	C289.241821,412.336731 286.175049,412.292603 283.219299,411.697296 
	C281.575104,411.366150 279.391571,410.561859 279.760559,408.200684 
	C280.087219,406.110168 281.739990,404.405548 283.777618,404.412933 
	C286.476013,404.422699 288.368378,403.792267 290.134552,401.640533 
	C291.460968,400.024536 293.097321,400.828094 294.081421,402.902527 
z"/>
<path fill="#000000" opacity="1.000000" stroke="none" 
	d="
M38.012409,200.993164 
	C34.434875,200.348206 35.158928,195.346725 31.028961,195.351242 
	C39.060902,185.963242 45.039940,184.762177 48.459320,191.404709 
	C46.277809,192.814926 42.871990,189.457047 41.765583,192.223785 
	C40.644413,195.027405 37.674801,196.968338 37.979492,200.696869 
	C37.972797,201.029602 37.998524,201.004364 38.012409,200.993164 
z"/>
<path fill="#000000" opacity="1.000000" stroke="none" 
	d="
M120.042900,96.972504 
	C118.796501,97.229240 117.603416,98.239815 115.919144,96.988899 
	C116.641350,94.562401 116.972694,91.883904 116.236542,89.246635 
	C123.879044,87.578438 129.506210,88.422226 131.132782,91.552406 
	C128.261063,93.156357 125.421852,92.372894 122.509018,91.552353 
	C121.117310,92.840820 120.788292,94.679474 120.071350,96.673935 
	C120.009483,96.997383 120.042900,96.972504 120.042900,96.972504 
z"/>
<path fill="#000000" opacity="1.000000" stroke="none" 
	d="
M150.742615,284.131470 
	C152.758102,287.396942 150.925842,289.169098 148.654495,290.401123 
	C146.814636,291.399109 144.625763,291.289337 143.307007,289.378723 
	C141.976486,287.451080 141.995789,285.083344 143.594376,283.401337 
	C145.853745,281.024048 148.325333,281.642853 150.742615,284.131470 
z"/>
<path fill="#000000" opacity="1.000000" stroke="none" 
	d="
M119.993729,97.010818 
	C121.835976,97.098465 123.786980,97.096588 124.368317,99.408989 
	C124.814766,101.184875 124.265472,102.703430 122.701134,103.742508 
	C121.200699,104.739128 120.704353,106.352791 120.093185,107.885468 
	C119.384232,109.663368 118.251640,110.591187 116.018158,110.026169 
	C114.826263,105.183525 118.166977,101.656525 119.904785,97.305298 
	C120.042900,96.972504 120.009483,96.997383 119.993729,97.010818 
z"/>
<path fill="#000000" opacity="1.000000" stroke="none" 
	d="
M133.298676,247.606506 
	C129.626556,245.755814 128.847794,243.180573 130.796982,240.051880 
	C132.261154,237.701675 134.541412,238.237366 136.576294,239.189575 
	C138.222244,239.959732 139.105835,241.548584 138.784760,243.316284 
	C138.290817,246.035583 136.698090,247.802353 133.298676,247.606506 
z"/>
<path fill="#000000" opacity="1.000000" stroke="none" 
	d="
M212.850266,223.131866 
	C210.051788,220.667984 209.684570,218.147278 212.129791,215.701340 
	C213.907776,213.922836 216.019318,214.156677 217.924469,215.681671 
	C219.513290,216.953445 220.042847,218.703751 219.208405,220.532883 
	C218.042236,223.089142 216.008560,224.185196 212.850266,223.131866 
z"/>
<path fill="#000000" opacity="1.000000" stroke="none" 
	d="
M122.810822,291.680481 
	C125.928185,292.416748 127.285217,294.107910 126.329971,296.865234 
	C125.470940,299.344818 123.462723,300.567078 120.828140,300.068787 
	C118.666557,299.659973 117.144043,298.265503 117.299179,295.905731 
	C117.500900,292.837158 119.528603,291.660858 122.810822,291.680481 
z"/>
<path fill="#000000" opacity="1.000000" stroke="none" 
	d="
M231.127777,137.065430 
	C232.797958,140.909164 231.554367,143.186493 227.933594,143.974442 
	C226.012863,144.392426 224.385727,143.465149 223.426117,141.666122 
	C222.438629,139.814835 222.811691,138.015182 224.257645,136.698441 
	C226.380417,134.765335 228.702240,134.815781 231.127777,137.065430 
z"/>
<path fill="#000000" opacity="1.000000" stroke="none" 
	d="
M243.640686,236.739136 
	C244.886810,239.996857 243.620285,241.945480 240.968781,242.877121 
	C238.675217,243.683014 236.716492,242.623428 235.590347,240.562454 
	C234.463791,238.500763 235.421509,236.617706 237.037521,235.336380 
	C239.415237,233.451126 241.609756,234.197983 243.640686,236.739136 
z"/>
<path fill="#000000" opacity="1.000000" stroke="none" 
	d="
M270.936340,230.713226 
	C274.399902,231.838730 276.229767,233.668015 274.458862,237.025925 
	C273.469971,238.900970 271.644196,239.823380 269.471954,239.309616 
	C267.735931,238.899033 266.584412,237.734818 266.548859,235.837311 
	C266.497375,233.089645 267.360321,230.979019 270.936340,230.713226 
z"/>
<path fill="#000000" opacity="1.000000" stroke="none" 
	d="
M391.348999,251.985062 
	C389.703979,249.273712 390.169098,247.201935 392.402618,245.604828 
	C394.160400,244.347900 395.898529,244.734406 397.396790,246.123688 
	C399.056274,247.662476 399.603912,249.535248 398.177917,251.466019 
	C396.341217,253.952866 394.029694,253.832962 391.348999,251.985062 
z"/>
<path fill="#000000" opacity="1.000000" stroke="none" 
	d="
M300.385284,184.948441 
	C303.497345,184.533844 305.292145,185.832184 305.987854,188.360107 
	C306.538788,190.361862 305.484985,191.958344 303.724121,192.872101 
	C301.930084,193.803101 300.047638,193.532761 298.690948,192.054642 
	C296.119385,189.253036 297.217529,186.964493 300.385284,184.948441 
z"/>
<path fill="#000000" opacity="1.000000" stroke="none" 
	d="
M423.666565,224.695160 
	C421.379028,223.007812 420.699158,221.139420 421.844116,218.893570 
	C422.664062,217.285248 424.120636,216.609772 425.926697,216.720245 
	C427.774231,216.833252 428.967010,217.860123 429.616516,219.510101 
	C430.878723,222.716599 428.551697,224.936066 423.666565,224.695160 
z"/>
<path fill="#000000" opacity="1.000000" stroke="none" 
	d="
M387.446167,160.504364 
	C390.553497,160.344345 392.166809,161.517807 392.290863,164.393936 
	C392.388977,166.669525 391.377655,168.224304 389.171051,168.736557 
	C387.205414,169.192856 385.527161,168.448639 384.726868,166.566391 
	C383.596069,163.906708 384.269745,161.781021 387.446167,160.504364 
z"/>
<path fill="#000000" opacity="1.000000" stroke="none" 
	d="
M406.351349,385.358215 
	C405.583588,383.364227 405.271118,381.534271 405.933472,379.334167 
	C407.749939,377.555084 409.702148,376.170563 411.646484,378.334808 
	C413.573303,380.479553 412.795410,383.187927 411.685852,385.348633 
	C410.408142,387.836823 408.383209,386.754669 406.351349,385.358215 
z"/>
<path fill="#000000" opacity="1.000000" stroke="none" 
	d="
M491.386444,168.458649 
	C492.057068,171.828171 490.668396,173.651382 487.806702,174.049866 
	C485.868042,174.319809 484.370300,173.119034 483.609680,171.290558 
	C482.808868,169.365540 483.367279,167.642151 485.060425,166.571548 
	C487.537415,165.005295 489.720337,165.455322 491.386444,168.458649 
z"/>
<path fill="#000000" opacity="1.000000" stroke="none" 
	d="
M366.094818,166.750122 
	C368.152832,168.984619 368.501404,171.036728 366.503571,173.067490 
	C365.227081,174.365036 363.616913,174.708359 361.997650,173.908691 
	C360.050720,172.947220 358.837189,171.235092 359.614746,169.094528 
	C360.652863,166.236649 362.706146,164.929047 366.094818,166.750122 
z"/>
<path fill="#000000" opacity="1.000000" stroke="none" 
	d="
M460.021332,142.781738 
	C461.058838,145.451828 460.459015,147.308731 458.326385,148.605850 
	C456.899597,149.473694 455.517426,149.265884 454.196381,148.300980 
	C452.691681,147.201889 452.236694,145.689926 452.600403,143.954987 
	C453.280518,140.710541 456.189117,140.122528 460.021332,142.781738 
z"/>
<path fill="#000000" opacity="1.000000" stroke="none" 
	d="
M400.872070,205.281448 
	C397.303802,204.852249 396.335968,202.813446 396.877563,200.001480 
	C397.259277,198.019760 398.783356,196.937271 400.777069,196.874557 
	C402.832397,196.809921 404.280975,198.053452 404.801178,199.898727 
	C405.632629,202.848145 404.081573,204.536545 400.872070,205.281448 
z"/>
<path fill="#000000" opacity="1.000000" stroke="none" 
	d="
M493.866760,118.272011 
	C490.609955,117.929230 489.496582,116.185257 489.788361,113.497414 
	C490.017853,111.383347 491.564148,110.281242 493.459991,110.124283 
	C495.667450,109.941544 497.305267,111.249741 497.784851,113.378052 
	C498.404205,116.126877 496.909760,117.680176 493.866760,118.272011 
z"/>
<path fill="#000000" opacity="1.000000" stroke="none" 
	d="
M163.839798,92.913589 
	C161.978058,89.737015 165.560181,89.509125 165.874741,87.452629 
	C167.544342,89.165474 169.751526,90.212601 168.096603,92.852592 
	C166.805923,94.911507 165.519470,94.368889 163.839798,92.913589 
z"/>
<path fill="#000000" opacity="1.000000" stroke="none" 
	d="
M60.143623,133.228851 
	C61.174755,130.996841 59.261494,128.631775 61.224884,126.496445 
	C63.444088,128.887024 61.971436,131.767273 62.858250,134.115967 
	C63.160809,134.917282 62.273014,135.628830 61.278160,135.474258 
	C60.228275,135.311142 60.134808,134.432816 60.143623,133.228851 
z"/>
<path fill="#000000" opacity="1.000000" stroke="none" 
	d="
M60.459877,80.035889 
	C60.416744,77.246330 60.583729,74.704582 60.780102,71.715454 
	C63.754589,75.839806 63.585342,78.793816 60.459877,80.035889 
z"/>
</svg>